HIERARCHY
ROOT Bip001_Pelvis
{
  OFFSET 32.8599 95.8771 -27.9544
  CHANNELS 6 Xposition Yposition Zposition Zrotation Xrotation Yrotation
  JOINT Bip001_Spine
  {
    OFFSET 1.4188e-005 10.2191 -0.0116013
    CHANNELS 3 Zrotation Xrotation Yrotation
    JOINT Bip001_L_Thigh
    {
      OFFSET 11.0458 -10.2191 0.0116197
      CHANNELS 3 Zrotation Xrotation Yrotation
      JOINT Bip001_L_Calf
      {
        OFFSET -0.707118 -44.0221 0.360014
        CHANNELS 3 Zrotation Xrotation Yrotation
        JOINT Bip001_L_Foot
        {
          OFFSET -0.651902 -40.5938 -3.56146
          CHANNELS 3 Zrotation Xrotation Yrotation
          JOINT Bip001_L_Toe0
          {
            OFFSET 0.0530839 -10.2181 13.1504
            CHANNELS 3 Zrotation Xrotation Yrotation
            End Site
            {
              OFFSET -1.02532e-005 0 7.55606
            }
          }
        }
      }
    }
    JOINT Bip001_R_Thigh
    {
      OFFSET -11.0458 -10.2191 0.0115893
      CHANNELS 3 Zrotation Xrotation Yrotation
      JOINT Bip001_R_Calf
      {
        OFFSET 0.706994 -44.0221 0.35984
        CHANNELS 3 Zrotation Xrotation Yrotation
        JOINT Bip001_R_Foot
        {
          OFFSET 0.651787 -40.5938 -3.5613
          CHANNELS 3 Zrotation Xrotation Yrotation
          JOINT Bip001_R_Toe0
          {
            OFFSET -0.0531479 -10.2181 13.1504
            CHANNELS 3 Zrotation Xrotation Yrotation
            End Site
            {
              OFFSET -1.02894e-005 0 7.55606
            }
          }
        }
      }
    }
    JOINT Bip001_Spine1
    {
      OFFSET 1.87041e-005 14.5736 1.08638
      CHANNELS 3 Zrotation Xrotation Yrotation
      JOINT Bip001_Spine2
      {
        OFFSET 2.24614e-005 14.5058 -1.69078
        CHANNELS 3 Zrotation Xrotation Yrotation
        JOINT Bip001_Neck
        {
          OFFSET 2.20278e-005 15.3945 -0.489414
          CHANNELS 3 Zrotation Xrotation Yrotation
          JOINT Bip001_L_Clavicle
          {
            OFFSET 6.06036 -0.000579998 0.00836775
            CHANNELS 3 Zrotation Xrotation Yrotation
            JOINT Bip001_L_UpperArm
            {
              OFFSET 11.5509 -0.0600302 0.00193952
              CHANNELS 3 Zrotation Xrotation Yrotation
              JOINT Bip001_L_Forearm
              {
                OFFSET 25.9523 0.0806089 -2.15551
                CHANNELS 3 Zrotation Xrotation Yrotation
                JOINT Bip001_L_Hand
                {
                  OFFSET 32.2475 0.153767 1.63968
                  CHANNELS 3 Zrotation Xrotation Yrotation
                  JOINT Bip001_L_Finger0
                  {
                    OFFSET 6.04639 -2.20976 5.90322
                    CHANNELS 3 Zrotation Xrotation Yrotation
                    End Site
                    {
                      OFFSET 4.22375 -1.43895 0.606486
                    }
                  }
                  JOINT Bip001_L_Finger1
                  {
                    OFFSET 11.0826 -0.704819 -0.198153
                    CHANNELS 3 Zrotation Xrotation Yrotation
                    End Site
                    {
                      OFFSET 6.20027 -0.397518 -0.0787166
                    }
                  }
                }
              }
            }
          }
          JOINT Bip001_R_Clavicle
          {
            OFFSET -6.06036 -0.000563197 0.00835105
            CHANNELS 3 Zrotation Xrotation Yrotation
            JOINT Bip001_R_UpperArm
            {
              OFFSET -11.5509 -0.0599978 0.00190698
              CHANNELS 3 Zrotation Xrotation Yrotation
              JOINT Bip001_R_Forearm
              {
                OFFSET -25.9523 0.0806819 -2.1559
                CHANNELS 3 Zrotation Xrotation Yrotation
                JOINT Bip001_R_Hand
                {
                  OFFSET -32.2476 0.153857 1.63991
                  CHANNELS 3 Zrotation Xrotation Yrotation
                  JOINT Bip001_R_Finger0
                  {
                    OFFSET -6.04642 -2.20975 5.9032
                    CHANNELS 3 Zrotation Xrotation Yrotation
                    End Site
                    {
                      OFFSET -4.22376 -1.43894 0.606473
                    }
                  }
                  JOINT Bip001_R_Finger1
                  {
                    OFFSET -11.0826 -0.70479 -0.198183
                    CHANNELS 3 Zrotation Xrotation Yrotation
                    End Site
                    {
                      OFFSET -6.20028 -0.397501 -0.0787337
                    }
                  }
                }
              }
            }
          }
          JOINT Bip001_Head
          {
            OFFSET 1.09673e-005 11.2744 2.05948
            CHANNELS 3 Zrotation Xrotation Yrotation
            End Site
            {
              OFFSET 2.89576e-005 20.8808 -2.77728e-005
            }
          }
        }
      }
    }
  }
}
MOTION
Frames:	16
Frame Time:	0.04
33.4247 95.9413 -28.19 0.872107 -0.122648 2.89846 -0.314266 2.16551 0.260547 4.37221 -2.69152 7.8132 -0.610474 6.01627 -12.7663 4.36971 -2.21436 -0.138388 -1.62495 -4.39908 2.79695 -3.78954 -2.95055 -1.90411 0.174036 10.5717 0.0122939 -5.88493 -9.45086 0.891222 2.23982 -7.59229 2.30039 -0.639071 4.32955 0.533559 -0.63907 4.32953 0.533557 1.14564 -8.65481 -4.57007 -25.3564 8.66086 2.10024 -54.054 41.2785 2.91252 16.2817 0.574095 -24.3037 9.62909 2.02721 -3.4467 3.18055e-015 -6.36111e-015 -0 3.18055e-015 -6.36111e-015 -1.59028e-015 19.783 17.6876 25.9232 51.2071 -19.8011 25.1997 -11.1502 -6.43352 93.5945 -61.0678 26.1482 39.2385 0 3.18055e-015 -0 -1.59028e-015 3.18056e-015 3.18055e-015 -0.378588 -4.12568 -4.09544 
33.3919 95.9471 -28.2439 0.879848 -0.149635 3.22278 -0.298259 2.18105 0.284367 4.3444 -2.79464 7.41112 -0.567315 6.02609 -12.7093 4.28064 -2.16596 -0.136116 -1.62823 -4.38249 2.78958 -3.78258 -2.91786 -2.03358 0.194569 10.5704 -0.00920375 -5.92206 -9.41901 0.709078 2.23063 -7.54578 2.2884 -0.606615 4.36058 0.579667 -0.60735 4.36058 0.580133 1.22838 -9.03701 -4.79314 -25.7574 8.882 2.50671 -54.0139 41.6602 2.88655 16.3603 0.187747 -24.4213 9.06849 1.87578 -3.57755 -7.06225e-031 1.27222e-014 3.18055e-015 -7.06225e-031 1.27222e-014 3.18055e-015 19.5219 18.1457 26.3074 55.7269 -21.0927 28.7673 -8.18619 -13.0791 88.6581 -56.8295 20.3589 42.4602 -1.59028e-015 -3.18055e-015 -2.38542e-015 -1.59028e-015 -3.18056e-015 -7.95139e-016 -0.582096 -4.03362 -4.23709 
33.2309 95.957 -28.4037 0.481348 0.170366 3.73571 -0.260517 2.09578 0.203095 4.88257 -3.57151 6.48158 -0.773835 6.66345 -12.2037 4.5233 -2.17564 -0.134734 -1.58341 -4.49797 2.75352 -3.25776 -3.01813 -1.91485 0.148962 10.1561 -0.0331764 -6.04111 -9.05809 0.267137 2.22299 -7.50714 2.26829 -0.529005 4.19062 0.41615 -0.529006 4.19062 0.416151 2.21311 -8.7612 -4.94898 -25.9848 8.55406 2.25217 -55.1907 41.2437 3.68261 16.6311 0.475263 -24.825 9.39866 1.92303 -3.44055 0 3.18055e-015 -0 -8.82782e-032 3.18056e-015 1.59028e-015 18.4927 17.2968 24.5495 58.5763 -22.4047 28.4243 -8.79525 -8.82874 91.9903 -54.6768 22.0889 34.1533 3.18055e-015 -6.36111e-015 1.59028e-015 3.18055e-015 -3.18056e-015 4.77083e-015 -1.33164 -4.1527 -4.04187 
33.2515 95.9651 -28.4485 0.565663 0.0205206 3.46204 -0.257473 2.08216 0.106077 4.74417 -3.30183 6.5363 -0.683418 6.50642 -11.8936 4.26563 -2.22613 -0.134491 -1.66384 -4.37709 2.82337 -3.39394 -3.00916 -1.95542 0.156097 10.3215 0.0387982 -5.93495 -9.13359 0.596251 2.20973 -7.45745 2.23298 -0.520141 4.16377 0.220893 -0.521704 4.16377 0.221424 2.33444 -8.34463 -4.68854 -25.8163 8.33602 1.65667 -56.4686 40.5812 4.58021 16.7358 1.44245 -24.7663 10.1541 1.64728 -3.82576 -3.18055e-015 9.54166e-015 -1.59028e-015 -6.36111e-015 9.54167e-015 -1.59028e-015 19.4186 16.4614 22.3234 59.4533 -20.032 31.3709 -11.5742 -9.13496 88.0265 -51.1272 21.5675 32.5482 -6.36111e-015 0 -4.77083e-015 -3.18055e-015 -3.18056e-015 -1.59028e-015 -1.45971 -3.91919 -3.7452 
33.3594 95.9761 -28.5403 0.737395 -0.0888024 2.46847 -0.20408 2.13773 0.0724357 4.32734 -2.92943 6.67443 -0.520474 6.11403 -11.0658 4.13106 -2.13426 -0.134472 -1.72053 -4.3153 2.89139 -3.79315 -3.39095 -1.91091 0.152235 10.7546 0.153332 -5.64416 -9.31546 1.41838 2.16601 -7.32385 2.19059 -0.416567 4.27519 0.155952 -0.415328 4.27519 0.153849 1.32824 -8.95848 -4.07245 -25.1642 9.1099 1.85782 -56.7172 40.8546 4.45024 16.5346 2.55464 -24.256 10.2307 1.61845 -4.19692 3.18055e-015 -6.36111e-015 -1.59028e-015 -8.82782e-032 -3.18056e-015 -1.59028e-015 20.2076 16.7967 21.4942 55.0847 -19.7528 29.2301 -9.67323 -12.9524 85.4161 -49.6445 22.9534 33.2383 -1.32417e-031 3.18055e-015 2.38542e-015 0 0 -7.95139e-016 -0.820604 -3.21492 -3.46663 
33.4286 95.9767 -28.6647 0.851473 -0.178412 1.50763 -0.181708 2.17483 0.126316 4.04813 -2.69698 7.30256 -0.336524 5.93995 -10.8478 3.70538 -2.20744 -0.111708 -1.81934 -4.196 3.02019 -4.06426 -3.74607 -2.0372 0.0933956 11.0949 0.333495 -5.33784 -9.47544 2.24511 2.1201 -7.19181 2.16142 -0.358926 4.3493 0.255679 -0.362224 4.34933 0.257197 1.09455 -9.59697 -3.75898 -25.4273 9.77553 2.04016 -56.1813 41.7836 3.66453 15.9819 3.16028 -23.2504 9.03076 1.74617 -4.36476 3.18055e-015 -9.54166e-015 -0 3.18055e-015 -9.54167e-015 -1.59028e-015 20.5973 17.3289 21.0191 51.4138 -19.5827 27.6208 -12.6414 -12.1282 83.1417 -48.1152 21.7544 30.2588 -8.82781e-032 -1.59028e-015 -3.18055e-015 3.18055e-015 0 -7.95139e-016 -0.68343 -3.02499 -3.26017 
33.4353 95.9816 -28.7747 0.803501 -0.161721 0.838911 -0.199464 2.13512 0.272982 4.06685 -2.6126 6.89214 -0.391887 5.86565 -9.93914 4.12668 -1.9977 -0.134261 -1.69172 -4.36038 2.88994 -4.08375 -3.87669 -1.98438 0.137981 11.031 0.477786 -5.20332 -9.43595 2.59471 2.0917 -7.11228 2.1469 -0.41072 4.26923 0.55414 -0.410136 4.26922 0.554114 1.69874 -9.45479 -3.88092 -25.915 9.62603 1.81875 -56.0689 42.508 3.23057 15.6593 3.90209 -22.0325 8.50028 1.76147 -4.50721 -3.18055e-015 6.36111e-015 1.59028e-015 3.18055e-015 3.18056e-015 -0 21.3201 17.342 20.3702 46.5453 -19.228 24.8518 -11.027 -13.5255 81.3453 -47.7524 21.5049 31.2375 -3.18055e-015 1.59028e-015 -7.95139e-016 -3.18055e-015 -1.59028e-015 1.59028e-015 -1.04159 -3.35474 -3.16863 
33.4054 95.9778 -28.8638 0.773118 -0.0650338 0.493927 -0.25525 2.07548 0.354899 4.17244 -2.6532 7.34797 -0.394985 5.87887 -10.2104 4.3707 -1.85551 -0.148936 -1.64919 -4.51618 2.86179 -4.00338 -4.01335 -1.78092 0.162699 10.9986 0.481538 -5.15205 -9.41238 2.66595 2.0723 -7.04887 2.13187 -0.523884 4.1493 0.719759 -0.523886 4.14932 0.719763 2.28964 -9.42702 -4.00606 -26.173 9.51982 1.80822 -56.422 42.3659 3.40288 15.8042 4.29817 -21.7997 8.63191 1.77441 -4.44551 2.64834e-031 -9.54166e-015 1.59028e-015 5.29669e-031 -9.54167e-015 3.18055e-015 22.4029 17.4432 19.3702 43.9047 -19.9284 21.5542 -10.3365 -10.7538 81.4419 -47.6744 20.1873 30.8546 -1.10348e-031 1.59028e-015 3.97569e-015 3.18055e-015 0 -7.95139e-016 -1.26936 -3.58873 -3.12199 
33.393 95.9785 -28.9115 0.796231 0.000684252 0.495666 -0.281302 2.053 0.284616 4.17089 -2.65171 7.62985 -0.37675 5.73376 -10.4689 4.45045 -1.7162 -0.154594 -1.6095 -4.62725 2.83058 -4.00832 -4.10274 -1.71529 0.180677 11.0298 0.464407 -5.11052 -9.42155 2.72309 2.07204 -7.06795 2.12537 -0.571744 4.10455 0.580188 -0.569862 4.10455 0.579948 2.1423 -9.54394 -3.85591 -26.0052 9.61465 2.03303 -57.678 41.9862 4.26923 17.1556 3.24145 -21.6832 8.38933 1.80971 -4.53001 -6.36111e-015 3.18055e-015 1.59028e-015 -3.18055e-015 3.18056e-015 1.59028e-015 23.3854 17.3536 18.095 42.0945 -19.1826 17.4916 -10.8112 -8.01481 81.7582 -46.5847 19.0585 30.283 -3.18055e-015 -1.59028e-015 -3.97569e-015 -3.18055e-015 0 -3.97569e-015 -1.07552 -3.80385 -3.05324 
33.3342 95.9674 -28.9703 0.723346 0.108105 0.807942 -0.277072 2.02522 0.165636 4.29479 -2.94048 7.81233 -0.36798 5.9908 -10.8198 4.5469 -1.75561 -0.157551 -1.58993 -4.66305 2.81063 -3.87125 -4.1079 -1.59539 0.172966 10.9133 0.403285 -5.21566 -9.40207 2.50582 2.0738 -7.0467 2.11577 -0.543503 4.04962 0.341209 -0.545805 4.04963 0.340829 1.75822 -9.63439 -3.7096 -25.8341 9.71873 2.21248 -57.534 41.5482 4.46478 16.8783 1.94767 -22.2316 8.90558 1.98955 -4.14829 8.82781e-032 3.18055e-015 -1.59028e-015 -3.18055e-015 -3.18056e-015 -0 24.589 17.2265 16.8307 39.212 -16.1701 12.1724 -9.88234 -8.05487 80.3208 -47.4046 20.0888 33.2602 -1.98626e-031 4.77083e-015 2.38542e-015 9.54166e-015 2.38542e-015 -1.59028e-015 -0.755888 -3.82317 -3.03762 
33.3099 95.9609 -28.9541 0.782771 -0.0619762 1.05569 -0.294568 2.04998 0.152404 4.28502 -2.79177 7.73601 -0.39022 5.91727 -10.956 4.56443 -1.71036 -0.161256 -1.55104 -4.68427 2.77524 -3.87575 -3.91875 -1.97233 0.0998802 10.9613 0.452949 -5.23752 -9.50433 2.60078 2.09424 -7.1127 2.13066 -0.598668 4.09914 0.31539 -0.598431 4.09914 0.315731 1.64566 -9.67982 -3.75199 -25.8787 9.76873 2.19081 -57.092 41.544 4.3109 16.8286 1.53565 -22.2574 8.99079 1.74274 -4.1562 3.18055e-015 -3.18055e-015 1.59028e-015 9.54166e-015 -6.36111e-015 -0 25.3202 17.0832 15.825 37.8997 -12.615 6.79053 -11.4456 -6.9143 77.8497 -45.168 20.8975 34.0975 3.18055e-015 7.95139e-016 2.38542e-015 9.54166e-015 4.77083e-015 1.59028e-015 -0.659645 -3.68957 -3.13987 
33.2701 95.9485 -28.9181 0.77338 -0.2039 1.16679 -0.321864 2.08368 0.186011 4.36403 -2.64464 7.88044 -0.462508 5.84242 -11.399 4.99818 -1.42618 -0.188512 -1.45615 -4.97995 2.71706 -3.78224 -3.74968 -2.31084 -0.0189652 10.9441 0.498772 -5.19454 -9.58287 2.76117 2.1025 -7.14848 2.16567 -0.6508 4.1732 0.385116 -0.650942 4.17321 0.38462 1.51341 -9.78683 -3.80879 -25.7769 9.88322 2.18812 -56.4927 41.8426 3.79189 16.8681 1.50712 -22.1506 9.24133 1.73237 -4.2394 -3.18055e-015 -6.36111e-015 -0 -1.76556e-031 -6.36111e-015 -1.59028e-015 26.2021 17.1786 15.1924 37.042 -7.34864 1.24496 -12.7158 -7.11945 73.6467 -41.3975 21.9783 32.7017 -3.18055e-015 -3.97569e-016 7.95139e-016 3.18055e-015 2.38542e-015 1.59028e-015 -0.522927 -3.54878 -3.24593 
33.2963 95.9478 -28.8824 0.832148 -0.139739 1.48133 -0.354464 2.08151 0.152761 4.32103 -2.66349 7.2769 -0.521852 5.66827 -11.0603 5.0391 -1.29889 -0.197799 -1.41312 -5.03646 2.6739 -3.83859 -3.64382 -1.85269 0.171902 10.7799 0.375571 -5.38082 -9.52771 2.16912 2.13735 -7.24369 2.17656 -0.715195 4.16202 0.318727 -0.715196 4.16203 0.318729 1.2168 -9.98975 -3.76179 -25.4721 10.1114 2.24484 -56.0593 41.8804 3.42384 16.8488 1.29304 -22.2427 9.53638 1.81582 -4.20401 1.76556e-031 -3.18055e-015 3.18055e-015 -3.18055e-015 3.18056e-015 4.77083e-015 26.8297 17.282 14.6562 38.1895 -0.639247 -3.06336 -14.577 -7.89075 66.7898 -37.9925 23.232 30.5223 -8.62091e-034 4.96962e-017 9.93923e-016 -9.82784e-033 9.44228e-016 5.96354e-016 -0.249767 -3.24794 -3.313 
33.2575 95.9474 -28.8533 0.743876 -0.323167 1.61189 -0.350089 2.13719 0.166278 4.47962 -2.64375 7.27066 -0.534956 5.90765 -11.1462 4.7822 -1.60274 -0.173171 -1.50806 -4.84645 2.74548 -3.6788 -3.39345 -1.94606 0.111635 10.6131 0.388929 -5.43114 -9.46641 2.08261 2.15901 -7.311 2.19734 -0.706307 4.27333 0.341631 -0.706699 4.27333 0.342375 0.940276 -10.2654 -3.74411 -25.387 10.4022 2.31464 -55.6099 41.6046 3.2491 16.9292 1.14916 -22.6442 9.61346 1.88626 -4.10468 -3.18055e-015 3.18055e-015 -1.59028e-015 -3.18055e-015 0 -3.18055e-015 26.9896 17.3479 14.0874 41.0661 5.90614 -5.24137 -16.7594 -8.15417 57.7215 -31.367 25.0234 25.1869 7.95139e-016 2.5842e-015 -7.95139e-016 -0 -4.47266e-016 -0 -0.0574572 -3.10699 -3.39102 
33.2564 95.9468 -28.8909 0.766556 -0.303385 1.644 -0.358472 2.16053 0.16993 4.50989 -2.77266 7.5676 -0.55336 6.04092 -11.3982 4.60209 -1.79217 -0.157872 -1.55318 -4.71579 2.76623 -3.67778 -3.51725 -1.94163 0.0869773 10.7362 0.388825 -5.44747 -9.47698 2.02762 2.16025 -7.33617 2.19957 -0.724683 4.31992 0.360757 -0.724509 4.31994 0.360156 0.683727 -10.5128 -3.68122 -25.1927 10.6746 2.37094 -55.3931 41.3848 3.11076 17.2121 1.59384 -22.9261 9.91026 1.60023 -4.19717 -3.18055e-015 -9.54166e-015 -1.59028e-015 -3.18055e-015 -9.54167e-015 -0 27.3396 17.4513 13.5936 43.8188 12.6757 -6.56838 -18.8557 -7.00925 48.366 -25.6903 23.6053 18.4341 3.18055e-015 1.98785e-015 -3.18055e-015 3.18055e-015 3.57813e-015 -3.18055e-015 0.0875532 -3.07448 -3.40874 
33.3435 95.9414 -29.0942 1.15721 0.270653 1.58257 -0.446257 2.06439 0.169693 4.03382 -3.11336 6.96306 -0.50151 5.47495 -10.786 4.63969 -1.30052 -0.185178 -1.53736 -4.76614 2.77023 -4.14447 -4.45736 -1.83576 0.246927 11.442 0.294336 -5.46836 -9.73828 2.00517 2.16188 -7.35264 2.20741 -0.89972 4.12737 0.355695 -0.899925 4.12737 0.356262 0.448995 -10.5823 -3.5622 -24.9729 10.8126 2.2773 -55.2982 41.3654 3.00549 17.2515 1.72285 -22.9301 9.936 1.75813 -4.17276 -5.29669e-031 9.54166e-015 3.18055e-015 -8.82782e-031 1.59028e-014 3.18055e-015 27.5929 17.4298 13.3564 46.2237 18.2672 -6.30428 -19.8418 -5.05765 38.3828 -22.2541 24.0561 16.1596 0 1.59028e-015 -0 2.20695e-032 7.95139e-016 -1.59028e-015 0.288564 -2.96085 -3.37926 
